<?xml version="1.0" encoding="utf-8"?>
<!-- Generator: Adobe Illustrator 21.1.0, SVG Export Plug-In . SVG Version: 6.00 Build 0)  -->
<svg version="1.1" id="Layer_1" xmlns="http://www.w3.org/2000/svg" xmlns:xlink="http://www.w3.org/1999/xlink" x="0px" y="0px"
	 viewBox="0 0 17.1 16.1" style="enable-background:new 0 0 17.1 16.1;" xml:space="preserve">
<style type="text/css">
	.st0{fill:#AFB9C3;}
</style>
<g>
	<path class="st0" d="M14.3,16.1L14.3,16.1H1.5c-0.8,0-1.5-0.7-1.5-1.4V3c0-0.8,0.7-1.4,1.5-1.4h12.8c0.8,0,1.5,0.7,1.5,1.4v11.7
		C15.8,15.5,15.1,16.1,14.3,16.1z M1.5,2.2C1,2.2,0.7,2.5,0.7,3v11.7c0,0.4,0.3,0.8,0.8,0.8h12.8c0.5,0,0.8-0.3,0.8-0.8V3
		c0-0.4-0.3-0.8-0.8-0.8H1.5L1.5,2.2z"/>
	<path class="st0" d="M15.6,15.2h-0.2c-0.2,0-0.3-0.1-0.3-0.3c0-0.2,0.1-0.3,0.3-0.3h0.2c0.5,0,0.8-0.3,0.8-0.8V2.2
		c0-0.4-0.3-0.8-0.8-0.8H2.8l0,0C2.4,1.3,2.1,1.7,2,2c0,0.2-0.2,0.2-0.3,0.2C1.5,2.2,1.5,2,1.5,1.9c0.1-0.7,0.8-1.1,1.4-1.1l0,0
		h12.8c0.8,0,1.5,0.7,1.5,1.4v11.7C17.1,14.6,16.4,15.2,15.6,15.2z"/>
	<g>
		<path class="st0" d="M12.6,3.3h-0.1c-0.5-0.2-0.7-1-0.7-1.7c0-0.8,0.3-1.7,0.9-1.7c0.3,0,0.7,0.3,0.8,1c0,0.2-0.1,0.3-0.2,0.3
			c-0.2,0-0.3-0.1-0.3-0.2c-0.1-0.2-0.1-0.4-0.2-0.4c-0.1,0.1-0.2,0.4-0.2,1.1s0.2,1,0.3,1.1c0.1,0.1,0.2,0.2,0.1,0.4
			C12.8,3.2,12.7,3.3,12.6,3.3z"/>
		<path class="st0" d="M12.6,3.9c-0.5,0-0.8-0.3-0.8-0.8s0.3-0.8,0.8-0.8c0.5,0,0.8,0.3,0.8,0.8C13.5,3.5,13.1,3.9,12.6,3.9z
			 M12.6,2.9c-0.1,0-0.2,0.1-0.2,0.2s0.1,0.2,0.2,0.2c0.1,0,0.2-0.1,0.2-0.2S12.7,2.9,12.6,2.9z"/>
	</g>
	<g>
		<path class="st0" d="M10.2,3.3h-0.1c-0.5-0.2-0.7-1-0.7-1.7C9.5,0.9,9.8,0,10.4,0c0.3,0,0.7,0.3,0.8,1c0,0.2-0.1,0.3-0.2,0.3
			c-0.2,0-0.3-0.1-0.3-0.2c-0.1-0.2-0.1-0.4-0.2-0.4c-0.1,0.1-0.2,0.4-0.2,1.1s0.2,1,0.3,1.1s0.2,0.2,0.1,0.4
			C10.5,3.2,10.4,3.3,10.2,3.3z"/>
		<path class="st0" d="M10.2,3.9c-0.5,0-0.8-0.3-0.8-0.8s0.3-0.8,0.8-0.8S11,2.6,11,3.1C11.1,3.5,10.8,3.9,10.2,3.9z M10.2,2.9
			C10.1,2.9,10,3,10,3.1s0.2,0.2,0.2,0.2s0.2-0.1,0.2-0.2C10.5,3,10.4,2.9,10.2,2.9z"/>
	</g>
	<g>
		<path class="st0" d="M7.9,3.3H7.8c-0.5-0.2-0.7-1-0.7-1.7C7.1,0.9,7.4,0,8,0c0.3,0,0.7,0.3,0.8,1c0,0.2-0.1,0.3-0.2,0.3
			c-0.2,0-0.3-0.1-0.3-0.2C8.1,0.9,8.1,0.7,8,0.7C7.9,0.8,7.8,1.1,7.8,1.8C7.8,2.3,8,2.6,8,2.6c0.1,0.1,0.2,0.2,0.1,0.4
			C8.1,3.2,8,3.3,7.9,3.3z"/>
		<path class="st0" d="M8,3.9c-0.5,0-0.8-0.3-0.8-0.8S7.5,2.3,8,2.3c0.5,0,0.8,0.3,0.8,0.8S8.4,3.9,8,3.9z M8,2.9
			C7.9,2.9,7.8,3,7.8,3.1S7.9,3.3,8,3.3c0.1,0,0.2-0.1,0.2-0.2C8.1,3,8.1,2.9,8,2.9z"/>
	</g>
	<g>
		<path class="st0" d="M5.5,3.3H5.4C5,3,4.7,2.2,4.7,1.7C4.7,0.9,5.1,0,5.6,0C6,0,6.3,0.3,6.4,1c0,0.2-0.1,0.3-0.2,0.3
			C6,1.3,5.9,1.2,5.9,1.1c0-0.3-0.1-0.4-0.1-0.6C5.6,0.7,5.5,1,5.5,1.7c-0.1,0.7,0.1,1,0.2,1C5.9,2.8,6,2.9,5.9,3.1
			C5.7,3.2,5.6,3.3,5.5,3.3z"/>
		<path class="st0" d="M5.6,3.9c-0.5,0-0.8-0.3-0.8-0.8s0.3-0.8,0.8-0.8c0.5,0,0.8,0.3,0.8,0.8C6.4,3.5,6.1,3.9,5.6,3.9z M5.6,2.9
			C5.5,2.9,5.4,3,5.4,3.1s0.1,0.2,0.2,0.2c0.1,0,0.2-0.1,0.2-0.2C5.9,3,5.7,2.9,5.6,2.9z"/>
	</g>
	<g>
		<path class="st0" d="M3.3,3.3H3.2C2.6,3,2.5,2.2,2.5,1.7C2.5,0.9,2.8,0,3.4,0c0.3,0,0.7,0.3,0.8,1c0,0.2-0.1,0.3-0.2,0.3
			c-0.2,0-0.3-0.1-0.3-0.2C3.5,0.8,3.4,0.7,3.4,0.6C3.3,0.7,3.2,1,3.2,1.7s0.2,1,0.3,1.1c0,0,0.1,0.2,0,0.3C3.5,3.2,3.4,3.3,3.3,3.3
			z"/>
		<path class="st0" d="M3.3,3.9c-0.5,0-0.8-0.3-0.8-0.8s0.3-0.8,0.8-0.8c0.5,0,0.8,0.3,0.8,0.8C4.2,3.5,3.7,3.9,3.3,3.9z M3.3,2.9
			C3.2,2.9,3,3,3,3.1s0.1,0.2,0.2,0.2c0.1,0,0.2-0.1,0.2-0.2S3.4,2.9,3.3,2.9z"/>
	</g>
	<path class="st0" d="M8.8,13.2H2.3c-0.2,0-0.3-0.1-0.3-0.3c0-0.2,0.1-0.3,0.3-0.3h6.5c0.2,0,0.3,0.1,0.3,0.3
		C9.1,13.1,9,13.2,8.8,13.2z"/>
	<path class="st0" d="M8.8,10.9H2.3c-0.2,0-0.3-0.1-0.3-0.3c0-0.2,0.1-0.3,0.3-0.3h6.5c0.2,0,0.3,0.1,0.3,0.3
		C9.1,10.8,9,10.9,8.8,10.9z"/>
	<path class="st0" d="M13.2,8.6H2.3C2,8.6,1.9,8.5,1.9,8.3c0-0.2,0.1-0.3,0.3-0.3h10.9c0.2,0,0.3,0.1,0.3,0.3
		C13.5,8.5,13.3,8.6,13.2,8.6z"/>
	<path class="st0" d="M13.2,6.4H2.3C2,6.4,1.9,6.3,1.9,6.1c0-0.2,0.1-0.3,0.3-0.3h10.9c0.2,0,0.3,0.1,0.3,0.3
		C13.5,6.2,13.3,6.4,13.2,6.4z"/>
	<path class="st0" d="M8.8,16.1L8.8,16.1H1.5c-0.8,0-1.5-0.7-1.5-1.4V3c0-0.8,0.7-1.4,1.5-1.4h12.8c0.8,0,1.5,0.7,1.5,1.4v6.3
		c0,0.1,0,0.1-0.1,0.2L9,16C9,16,8.9,16.1,8.8,16.1z M1.5,2.2C1,2.2,0.7,2.5,0.7,3v11.7c0,0.4,0.3,0.8,0.8,0.8h7.2l6.4-6.3V3
		c0-0.4-0.3-0.8-0.8-0.8H1.5L1.5,2.2z"/>
	<path class="st0" d="M8.8,16.1H8.7c-0.1,0-0.2-0.1-0.2-0.3v-5.4c0-0.8,0.7-1.4,1.5-1.4h5.5c0.1,0,0.2,0.1,0.3,0.2
		c0,0.1,0,0.2-0.1,0.3L9,16C9,16,8.9,16.1,8.8,16.1z M9.9,9.6c-0.5,0-0.8,0.3-0.8,0.8V15l5.5-5.4L9.9,9.6L9.9,9.6z"/>
</g>
</svg>
